<?xml version="1.0" encoding="UTF-8" standalone="no"?>
<!-- Created with Inkscape (http://www.inkscape.org/) -->

<svg
   xmlns:dc="http://purl.org/dc/elements/1.1/"
   xmlns:cc="http://creativecommons.org/ns#"
   xmlns:rdf="http://www.w3.org/1999/02/22-rdf-syntax-ns#"
   xmlns:svg="http://www.w3.org/2000/svg"
   xmlns="http://www.w3.org/2000/svg"
   xmlns:sodipodi="http://sodipodi.sourceforge.net/DTD/sodipodi-0.dtd"
   xmlns:inkscape="http://www.inkscape.org/namespaces/inkscape"
   width="500mm"
   height="500mm"
   viewBox="0 0 500 500"
   version="1.1"
   id="svg3705"
   inkscape:version="0.92.2 (5c3e80d, 2017-08-06)"
   sodipodi:docname="wordclock_face_dutch_vector.svg"
   inkscape:export-filename="C:\Users\jchristophe\Documents\GitHub\WordClock\wordclock_face_dutch.png"
   inkscape:export-xdpi="600"
   inkscape:export-ydpi="600">
  <defs
     id="defs3699" />
  <sodipodi:namedview
     id="base"
     pagecolor="#ffffff"
     bordercolor="#666666"
     borderopacity="1.0"
     inkscape:pageopacity="0.0"
     inkscape:pageshadow="2"
     inkscape:zoom="0.49497474"
     inkscape:cx="850.2945"
     inkscape:cy="1205.5205"
     inkscape:document-units="mm"
     inkscape:current-layer="flowRoot3717"
     showgrid="true"
     inkscape:window-width="1920"
     inkscape:window-height="1027"
     inkscape:window-x="1912"
     inkscape:window-y="-8"
     inkscape:window-maximized="1"
     showguides="true"
     inkscape:guide-bbox="true"
     inkscape:measure-start="120,1720"
     inkscape:measure-end="160,1720">
    <inkscape:grid
       type="xygrid"
       id="grid3707" />
    <sodipodi:guide
       position="-52.916668,497.41668"
       orientation="0,1"
       id="guide3747"
       inkscape:locked="false" />
    <sodipodi:guide
       position="-127,539.75002"
       orientation="1,0"
       id="guide3749"
       inkscape:locked="false" />
  </sodipodi:namedview>
  <metadata
     id="metadata3702">
    <rdf:RDF>
      <cc:Work
         rdf:about="">
        <dc:format>image/svg+xml</dc:format>
        <dc:type
           rdf:resource="http://purl.org/dc/dcmitype/StillImage" />
        <dc:title></dc:title>
      </cc:Work>
    </rdf:RDF>
  </metadata>
  <g
     inkscape:groupmode="layer"
     id="layer2"
     inkscape:label="background"
     transform="translate(0,50)" />
  <g
     inkscape:label="Layer 1"
     inkscape:groupmode="layer"
     id="layer1"
     transform="translate(0,203)">
    <flowRoot
       xml:space="preserve"
       id="flowRoot3709"
       style="font-style:normal;font-weight:normal;font-size:40px;line-height:1.25;font-family:sans-serif;letter-spacing:0px;word-spacing:0px;fill:#000000;fill-opacity:1;stroke:none"><flowRegion
         id="flowRegion3711"><rect
           id="rect3713"
           width="1380"
           height="260"
           x="80"
           y="60.787354" /></flowRegion><flowPara
         id="flowPara3715" /></flowRoot>    <flowRoot
       xml:space="preserve"
       id="flowRoot58"
       style="font-style:normal;font-weight:normal;font-size:40px;line-height:1.25;font-family:sans-serif;letter-spacing:0px;word-spacing:0px;fill:#000000;fill-opacity:1;stroke:none"><flowRegion
         id="flowRegion60"><rect
           id="rect62"
           width="640"
           height="840"
           x="2120"
           y="260.78741" /></flowRegion><flowPara
         id="flowPara64" /></flowRoot>    <g
       aria-label="H E T A I S A V I J F
T I E N B T Z V O O R
O V E R M E K W A R T
H A L F S P W O V E R
V O O R T H G É É N S
T W E E A M C D R I E
V I E R V I J F Z E S
Z E V E N O N E G E N
A C H T T I E N E L F
T W A A L F B F U U R"
       transform="matrix(0.280336,0,0,0.32421964,5.2087787,-188.2173)"
       style="font-style:normal;font-variant:normal;font-weight:bold;font-stretch:normal;font-size:76.09488678px;line-height:122.02235413px;font-family:sans-serif;-inkscape-font-specification:'sans-serif Bold';text-align:center;letter-spacing:8.84522724px;word-spacing:0px;writing-mode:lr-tb;text-anchor:middle;fill:#000000;fill-opacity:1;stroke:none"
       id="flowRoot3717">
      <path
         id="path260"
         style="font-style:normal;font-variant:normal;font-weight:bold;font-stretch:normal;font-size:76.09488678px;line-height:122.02235413px;font-family:'Droid Sans Mono';-inkscape-font-specification:'Droid Sans Mono Bold';text-align:center;letter-spacing:20.03444099px;writing-mode:lr-tb;text-anchor:middle"
         d="m 1521.3144,1288.3249 v 22.442 h -6.9482 v -54.3216 h 13.2646 q 19.321,0 19.321,15.4196 0,10.6637 -10.738,14.565 l 14.7508,24.337 h -8.1371 l -13.0045,-22.442 z m 0,-5.8706 h 6.0935 q 6.3536,0 9.3632,-2.4523 3.0097,-2.4523 3.0097,-7.8027 0,-5.239 -2.9725,-7.5426 -2.9725,-2.3037 -9.5862,-2.3037 h -5.9077 z m -104.1626,-26.0834 v 35.2237 q 0,9.6604 -4.6816,14.7879 -4.6816,5.1275 -13.7476,5.1275 -17.9462,0 -17.9462,-20.0641 v -35.0006 h 6.9109 v 34.6291 q 0,14.3792 11.4068,14.3792 10.961,0 11.1468,-14.4535 v -34.6292 z m -131.3232,0 v 35.2237 q 0,9.6604 -4.6816,14.7879 -4.6817,5.1275 -13.7476,5.1275 -17.9463,0 -17.9463,-20.0641 v -35.0006 h 6.911 v 34.6291 q 0,14.3792 11.4068,14.3792 10.9609,0 11.1467,-14.4535 v -34.6292 z m -156.3663,54.396 h -6.9109 v -54.3216 h 31.2479 v 6.0935 h -24.337 v 19.1723 h 22.9251 v 6.0936 h -22.9251 z m -142.28421,-54.3216 h 16.34851 q 10.1807,0 14.7508,3.2697 4.6073,3.2325 4.6073,10.4779 0,4.7559 -2.9353,7.9141 -2.8981,3.1583 -7.877,3.8271 v 0.3715 q 12.3357,2.0064 12.3357,12.7073 0,7.3568 -4.7559,11.5554 -4.7188,4.1986 -12.893,4.1986 h -19.58111 z m 6.94812,23.0365 h 10.55219 q 5.7963,0 8.4344,-2.0436 2.6752,-2.0435 2.6752,-6.7623 0,-4.4587 -2.861,-6.3908 -2.8238,-1.9321 -8.9917,-1.9321 h -9.80909 z m 0,5.7963 v 19.6182 h 11.40679 q 11.5554,0 11.5554,-10.1807 0,-9.4375 -12.0384,-9.4375 z m -127.31049,25.4888 h -6.91096 v -54.3216 h 31.24795 v 6.0935 h -24.33699 v 19.1723 h 22.92508 v 6.0936 h -22.92508 z m -138.64297,0 v -54.3216 h 6.94811 v 48.1538 h 23.59388 v 6.1678 z m -102.67626,0 -5.35042,-16.8315 h -18.24345 l -5.42473,16.8315 h -7.05959 l 17.94621,-54.5446 h 7.24536 l 18.02052,54.5446 z m -7.31967,-22.9622 -4.94171,-15.754 q -1.44907,-4.6074 -2.30365,-8.3972 -0.74312,3.6784 -1.70917,6.7995 l -5.35042,17.3517 z m -124.00363,22.9622 -5.35042,-16.8315 h -18.24345 l -5.42474,16.8315 H 458.095 l 17.94621,-54.5446 h 7.24536 l 18.02052,54.5446 z m -7.31967,-22.9622 -4.94171,-15.754 q -1.44907,-4.6074 -2.30366,-8.3972 -0.74311,3.6784 -1.70916,6.7995 l -5.35042,17.3517 z m -141.68975,-14.4908 h 6.57656 l 5.38758,19.3582 q 2.2665,8.1371 2.67521,11.4068 0.0743,-1.9693 2.41512,-22.9994 l 2.6009,-24.6342 h 6.31647 l -6.94812,54.3216 h -7.05958 l -6.24216,-21.5503 q -1.48623,-5.1275 -2.45228,-10.4779 -1.18898,6.4279 -2.41512,10.5522 l -5.79629,21.476 h -7.05958 l -7.54261,-54.3216 h 6.31647 l 3.2697,24.6342 q 0.85458,6.5394 1.48623,14.0448 0.63165,7.5055 0.63165,8.9546 0.89173,-5.6105 2.6009,-11.5926 z m -124.67243,37.453 h -6.94812 v -48.2281 h -15.53108 v -6.0935 h 37.97313 v 6.0935 H 220.49134 Z M 1523.4322,1186.7447 h -6.9109 v -54.3217 h 31.2479 v 6.0936 h -24.337 v 19.1723 h 22.9251 v 6.0936 h -22.9251 z m -138.643,0 v -54.3217 h 6.9481 v 48.1538 h 23.5939 v 6.1679 z m -100.6326,0 h -31.2851 v -54.3217 h 31.2851 v 6.0936 h -24.3742 v 16.7944 h 22.9251 v 6.0192 h -22.9251 v 19.3209 h 24.3742 z m -130.0972,0 h -7.9885 l -21.5503,-44.9584 h -0.2972 q 0.6688,10.2921 0.6688,15.4939 v 29.4645 h -6.3908 v -54.3217 h 7.9142 l 21.476,44.7355 h 0.2229 q -0.5202,-11.2582 -0.5202,-15.0109 v -29.7246 h 6.4651 z m -132.5494,0 H 990.22486 V 1132.423 H 1021.51 v 6.0936 h -24.37418 v 16.7944 h 22.92508 v 6.0192 h -22.92508 v 19.3209 H 1021.51 Z m -133.47837,0 h -28.83282 v -4.5702 l 10.96093,-0.7431 v -43.6951 l -10.96093,-0.7431 v -4.5702 h 28.83282 v 4.5702 l -10.92377,0.7431 v 43.6951 l 10.92377,0.7431 z m -142.24708,0 h -6.94811 v -48.2281 h -15.53109 v -6.0936 h 37.97313 v 6.0936 h -15.49393 z m -131.3233,0 h -6.94812 v -48.2281 h -15.53108 v -6.0936 h 37.97313 v 6.0936 h -15.49393 z m -116.94405,0 h -6.94811 v -25.3402 H 468.833 v 25.3402 h -6.94812 v -54.3217 h 6.94812 v 22.888 h 21.73609 v -22.888 h 6.94811 z m -130.20863,-7.4683 v 6.0192 q -5.42473,2.1922 -13.30174,2.1922 -11.48111,0 -17.57465,-7.2825 -6.09354,-7.2825 -6.09354,-20.6957 0,-12.8559 6.65088,-20.3614 6.65087,-7.5054 18.16914,-7.5054 8.17425,0 14.23063,3.1954 l -2.89814,5.7963 q -5.72198,-2.8982 -11.33249,-2.8982 -7.98848,0 -12.74441,5.9078 -4.75593,5.8706 -4.75593,15.9398 0,10.6637 4.45868,16.2742 4.45869,5.5733 13.04166,5.5733 4.83024,0 12.14991,-2.155 z m -135.78199,7.4683 -5.35042,-16.8316 h -18.24345 l -5.42473,16.8316 h -7.05959 l 17.94621,-54.5446 h 7.24536 l 18.02052,54.5446 z m -7.31967,-22.9622 -4.94171,-15.7541 q -1.44907,-4.6073 -2.30365,-8.3972 -0.74312,3.6785 -1.70917,6.7995 l -5.35042,17.3518 z m 1323.82239,-101.06 h -7.9885 l -21.5503,-44.9584 h -0.2972 q 0.6688,10.2921 0.6688,15.4939 v 29.4645 h -6.3908 v -54.3217 h 7.9142 l 21.476,44.7355 h 0.2229 q -0.5202,-11.2582 -0.5202,-15.0109 v -29.7246 h 6.4651 z m -132.5495,0 h -31.2851 v -54.3217 h 31.2851 v 6.0936 h -24.3741 v 16.7943 h 22.925 v 6.0193 h -22.925 v 19.3209 h 24.3741 z m -145.7025,-28.6842 h 15.6797 v 26.6406 q -7.2453,2.7867 -15.6054,2.7867 -9.7348,0 -15.2338,-7.394 -5.4619,-7.4311 -5.4619,-20.5843 0,-13.0416 6.0192,-20.4356 6.0192,-7.4311 16.5715,-7.4311 7.1339,0 12.8558,3.1953 l -2.6752,6.0193 q -5.4247,-3.1211 -10.4036,-3.1211 -7.1339,0 -11.1095,5.7963 -3.9757,5.7591 -3.9757,16.0512 0,21.8476 14.6394,21.8476 3.6041,0 7.5054,-1.0775 v -16.1999 h -8.8059 z m -116.944,28.6842 h -31.2851 v -54.3217 h 31.2851 v 6.0936 h -24.3742 v 16.7943 h 22.9251 v 6.0193 h -22.9251 v 19.3209 h 24.3742 z m -130.0972,0 h -7.9885 l -21.55028,-44.9584 h -0.29725 q 0.66881,10.2921 0.66881,15.4939 v 29.4645 h -6.39079 v -54.3217 h 7.91417 l 21.47604,44.7355 h 0.2229 q -0.5202,-11.2582 -0.5202,-15.0109 v -29.7246 h 6.4651 z m -149.00941,0.7431 q -19.76684,0 -19.76684,-28.0526 0,-27.8668 19.84115,-27.8668 9.51186,0 14.56503,7.2826 5.09034,7.2453 5.09034,20.6585 0,13.4132 -5.12749,20.6958 -5.12749,7.2825 -14.60219,7.2825 z m 0,-6.0564 q 6.42793,0 9.40039,-5.3876 3.00961,-5.3876 3.00961,-16.5343 0,-11.2581 -3.04677,-16.5343 -3.00961,-5.3132 -9.28892,-5.3132 -12.52148,0 -12.52148,21.8475 0,21.9219 12.44717,21.9219 z m -113.63719,5.3133 h -7.98848 l -21.55031,-44.9584 h -0.29724 q 0.6688,10.2921 0.6688,15.4939 v 29.4645 h -6.39078 v -54.3217 h 7.91416 l 21.476,44.7355 h 0.22294 q -0.52018,-11.2582 -0.52018,-15.0109 v -29.7246 h 6.46509 z m -132.54944,0 h -31.28511 v -54.3217 h 31.28511 v 6.0936 h -24.37415 v 16.7943 h 22.92508 v 6.0193 h -22.92508 v 19.3209 h 24.37415 z M 493.9131,1008.4008 h 7.39399 l -18.16914,54.3217 h -6.94812 L 458.095,1008.4008 h 7.28252 l 10.96093,34.4434 q 1.52339,4.7187 3.2697,12.41 1.15183,-5.3876 3.45548,-12.633 z m -129.01965,54.3217 h -31.2851 v -54.3217 h 31.2851 v 6.0936 h -24.37414 v 16.7943 h 22.92507 v 6.0193 h -22.92507 v 19.3209 h 24.37414 z m -128.90818,0 h -37.97313 v -5.3876 l 29.46447,-42.7662 h -28.6842 v -6.1679 h 36.44974 v 5.3876 l -29.46447,42.7662 h 30.20759 z M 1512.6942,936.87962 v -6.61371 q 7.8399,3.19539 15.3825,3.19539 13.0045,0 13.0045,-8.91737 0,-3.8642 -2.6381,-5.94492 -2.6009,-2.08072 -10.5893,-4.94171 -7.7284,-2.71236 -11.1096,-6.46509 -3.344,-3.78988 -3.344,-9.8091 0,-6.4651 4.7559,-10.10636 4.7931,-3.67841 13.116,-3.67841 8.5087,0 15.4568,2.89814 l -2.378,6.09354 q -7.171,-2.89815 -13.3761,-2.89815 -10.8866,0 -10.8866,7.76555 0,3.78988 2.4151,6.09353 2.4523,2.30366 10.0692,4.94171 9.1403,3.2697 12.1871,6.76234 3.0839,3.45548 3.0839,8.91737 0,7.1339 -5.1646,11.22102 -5.1275,4.04997 -14.6022,4.04997 -9.8463,0 -15.3825,-2.56374 z m -97.2144,1.82063 h -31.2851 v -54.32164 h 31.2851 v 6.09353 h -24.3741 v 16.79438 h 22.925 v 6.01923 h -22.925 v 19.32096 h 24.3741 z m -128.9081,0 h -37.9731 v -5.38758 l 29.4644,-42.76621 h -28.6842 v -6.16785 h 36.4498 v 5.38758 l -29.4645,42.76621 h 30.2076 z m -157.1094,0 h -6.9109 v -54.32164 h 31.2479 v 6.09353 h -24.337 v 19.17235 h 22.9251 v 6.09353 h -22.9251 z m -142.20989,-1.44907 v -6.16785 q 6.01922,2.30365 11.48111,2.30365 5.98208,0 9.43758,-2.9353 3.4554,-2.97245 3.4554,-8.43434 v -37.63873 h 6.911 v 37.56442 q 0,8.02563 -5.2389,12.78156 -5.2018,4.71877 -14.00774,4.71877 -8.06279,0 -12.03845,-2.19218 z m -99.22078,1.44907 h -28.83282 v -4.57015 l 10.96093,-0.74312 v -43.69511 l -10.96093,-0.74311 v -4.57015 h 28.83282 v 4.57015 l -10.92377,0.74311 v 43.69511 l 10.92377,0.74312 z M 756.55971,884.37861 h 7.39398 l -18.16914,54.32164 h -6.94811 l -18.09483,-54.32164 h 7.28251 l 10.96094,34.44334 q 1.52338,4.71877 3.2697,12.41 1.15183,-5.38757 3.45548,-12.63294 z M 602.05124,916.2582 v 22.44205 h -6.94811 v -54.32164 h 13.26458 q 19.32097,0 19.32097,15.41962 0,10.66368 -10.738,14.56503 l 14.75082,24.33699 h -8.1371 L 610.5599,916.2582 Z m 0,-5.8706 h 6.09354 q 6.35362,0 9.36324,-2.45227 3.00961,-2.45228 3.00961,-7.8027 0,-5.23896 -2.97246,-7.54261 -2.97245,-2.30365 -9.58617,-2.30365 h -5.90776 z m -105.83449,28.31265 h -31.2851 v -54.32164 h 31.2851 v 6.09353 h -24.37414 v 16.79438 h 22.92507 v 6.01923 h -22.92507 v 19.32096 h 24.37414 z m -133.47833,0 h -28.83283 v -4.57015 l 10.96094,-0.74312 v -43.69511 l -10.96094,-0.74311 v -4.57015 h 28.83283 v 4.57015 l -10.92378,0.74311 v 43.69511 l 10.92378,0.74312 z M 231.26649,884.37861 h 7.39399 l -18.16914,54.32164 h -6.94812 l -18.09483,-54.32164 h 7.28252 l 10.96094,34.44334 q 1.52338,4.71877 3.2697,12.41 1.15182,-5.38757 3.45548,-12.63294 z M 1546.8032,814.67803 h -31.2851 v -54.32164 h 31.2851 v 6.09354 h -24.3742 v 16.79438 h 22.9251 v 6.01922 h -22.9251 v 19.32097 h 24.3742 z m -133.4784,0 h -28.8328 v -4.57015 l 10.9609,-0.74311 v -43.69511 l -10.9609,-0.74312 v -4.57015 h 28.8328 v 4.57015 l -10.9238,0.74312 v 43.69511 l 10.9238,0.74311 z m -154.657,-22.44204 v 22.44204 h -6.9482 v -54.32164 h 13.2646 q 19.321,0 19.321,15.41962 0,10.66369 -10.738,14.56504 l 14.7508,24.33698 h -8.1371 l -13.0045,-22.44204 z m 0,-5.8706 h 6.0935 q 6.3536,0 9.3632,-2.45228 3.0096,-2.45228 3.0096,-7.8027 0,-5.23895 -2.9724,-7.54261 -2.9725,-2.30365 -9.5862,-2.30365 h -5.9077 z m -140.1664,28.31264 v -54.32164 h 12.7072 q 11.7784,0 18.3178,7.02243 6.5766,7.02243 6.5766,19.61821 0,13.41321 -6.7995,20.54711 -6.7995,7.13389 -19.6182,7.13389 z m 6.9481,-48.41388 v 42.46897 h 3.567 q 19.7668,0 19.7668,-21.51315 0,-20.95582 -18.3178,-20.95582 z m -101.5244,40.94559 v 6.01922 q -5.4247,2.19219 -13.3018,2.19219 -11.48107,0 -17.5746,-7.28252 -6.09354,-7.28252 -6.09354,-20.69573 0,-12.85587 6.65087,-20.36133 6.65087,-7.50545 18.16917,-7.50545 8.1742,0 14.2306,3.19539 l -2.8981,5.79629 q -5.722,-2.89814 -11.3325,-2.89814 -7.9885,0 -12.74443,5.90775 -4.75594,5.87061 -4.75594,15.9398 0,10.66369 4.45869,16.2742 4.45868,5.57336 13.04168,5.57336 4.8302,0 12.1499,-2.15503 z m -153.31949,7.46829 -10.32929,-47.5593 h -0.29725 q 0.66881,9.88342 0.66881,15.08522 v 32.47408 h -5.61051 v -54.32164 h 9.17746 l 9.21461,44.2896 h 0.22293 l 9.28893,-44.2896 h 9.36324 v 54.32164 h -5.68482 v -32.95711 q 0,-3.78988 0.52018,-14.52788 h -0.29725 l -10.51506,47.48499 z m -113.78581,0 -5.35042,-16.83153 h -18.24346 l -5.42473,16.83153 h -7.05958 l 17.9462,-54.54457 h 7.24537 l 18.02051,54.54457 z m -7.31968,-22.96222 -4.94171,-15.75402 q -1.44907,-4.60731 -2.30365,-8.39719 -0.74311,3.67841 -1.70916,6.79949 l -5.35042,17.35172 z m -121.96006,22.96222 h -31.28511 v -54.32164 h 31.28511 v 6.09354 h -24.37415 v 16.79438 h 22.92508 v 6.01922 h -22.92508 v 19.32097 h 24.37415 z m -131.32331,0 h -31.2851 v -54.32164 h 31.2851 v 6.09354 h -24.37414 v 16.79438 h 22.92507 v 6.01922 h -22.92507 v 19.32097 h 24.37414 z M 345.16377,777.22508 h 6.57656 l 5.38758,19.35812 q 2.2665,8.1371 2.67521,11.40681 0.0743,-1.96926 2.41512,-22.99939 l 2.6009,-24.63423 h 6.31647 l -6.94812,54.32164 h -7.05958 l -6.24216,-21.55031 q -1.48623,-5.12748 -2.45228,-10.47791 -1.18898,6.42794 -2.41512,10.55223 l -5.79629,21.47599 h -7.05958 l -7.54261,-54.32164 h 6.31647 l 3.2697,24.63423 q 0.85458,6.53941 1.48623,14.04486 0.63165,7.50545 0.63165,8.95453 0.89173,-5.61051 2.6009,-11.59258 z m -124.67243,37.45295 h -6.94812 v -48.2281 h -15.53108 v -6.09354 h 37.97313 v 6.09354 H 220.49134 Z M 1512.6942,688.83519 v -6.61372 q 7.8399,3.19539 15.3825,3.19539 13.0045,0 13.0045,-8.91737 0,-3.86419 -2.6381,-5.94491 -2.6009,-2.08072 -10.5893,-4.94171 -7.7284,-2.71237 -11.1096,-6.46509 -3.344,-3.78988 -3.344,-9.80911 0,-6.46509 4.7559,-10.10635 4.7931,-3.67842 13.116,-3.67842 8.5087,0 15.4568,2.89815 l -2.378,6.09354 q -7.171,-2.89815 -13.3761,-2.89815 -10.8866,0 -10.8866,7.76554 0,3.78989 2.4151,6.09354 2.4523,2.30365 10.0692,4.94171 9.1403,3.2697 12.1871,6.76234 3.0839,3.45548 3.0839,8.91737 0,7.13389 -5.1646,11.22102 -5.1275,4.04997 -14.6022,4.04997 -9.8463,0 -15.3825,-2.56374 z m -95.9882,1.82063 h -7.9885 l -21.5503,-44.95841 h -0.2973 q 0.6688,10.29213 0.6688,15.49393 v 29.46448 h -6.3908 v -54.32165 h 7.9142 l 21.476,44.73547 h 0.2229 q -0.5201,-11.25817 -0.5201,-15.0109 v -29.72457 h 6.4651 z m -132.5494,0 h -31.2851 v -54.32165 h 31.2851 v 6.09354 h -24.3742 v 16.79438 h 22.9251 v 6.01922 h -22.9251 v 19.32097 h 24.3742 z m -21.476,-59.67207 q 3.4926,-4.94171 6.4651,-11.18387 h 8.1371 v 0.78027 q -4.1615,6.42794 -10.1064,11.40681 h -4.4958 z m -109.8473,59.67207 h -31.2851 v -54.32165 h 31.2851 v 6.09354 h -24.3742 v 16.79438 h 22.9251 v 6.01922 h -22.9251 v 19.32097 h 24.3742 z m -21.476,-59.67207 q 3.4926,-4.94171 6.4651,-11.18387 h 8.1371 v 0.78027 q -4.1615,6.42794 -10.1064,11.40681 h -4.4958 z m -124.2266,30.98786 h 15.6797 v 26.64064 q -7.2453,2.78668 -15.6054,2.78668 -9.73477,0 -15.23382,-7.39398 -5.46189,-7.43115 -5.46189,-20.58427 0,-13.04165 6.01923,-20.43563 6.01922,-7.43115 16.57148,-7.43115 7.1339,0 12.8558,3.1954 l -2.6752,6.01922 q -5.4247,-3.12108 -10.4036,-3.12108 -7.1339,0 -11.10953,5.79629 -3.97566,5.75914 -3.97566,16.05127 0,21.84755 14.63939,21.84755 3.6041,0 7.5054,-1.07751 v -16.19989 h -8.8059 z M 891.48711,690.65582 H 884.539 v -25.34019 h -21.73609 v 25.34019 h -6.94812 v -54.32165 h 6.94812 v 22.88792 H 884.539 v -22.88792 h 6.94811 z m -145.70256,0 h -6.94811 v -48.22811 h -15.53109 v -6.09354 h 37.97313 v 6.09354 H 745.78455 Z M 602.05124,668.21377 v 22.44205 h -6.94811 v -54.32165 h 13.26458 q 19.32097,0 19.32097,15.41962 0,10.66369 -10.738,14.56504 l 14.75082,24.33699 h -8.1371 l -13.0045,-22.44205 z m 0,-5.8706 h 6.09354 q 6.35362,0 9.36324,-2.45228 3.00961,-2.45227 3.00961,-7.8027 0,-5.23895 -2.97246,-7.5426 -2.97245,-2.30366 -9.58617,-2.30366 h -5.90776 z m -122.29446,29.05576 q -19.76684,0 -19.76684,-28.05256 0,-27.86678 19.84115,-27.86678 9.51186,0 14.56503,7.28252 5.09034,7.24536 5.09034,20.65857 0,13.41321 -5.12749,20.69573 -5.12749,7.28252 -14.60219,7.28252 z m 0,-6.05638 q 6.42793,0 9.40039,-5.38758 3.00961,-5.38757 3.00961,-16.53429 0,-11.25817 -3.04677,-16.53429 -3.00961,-5.31326 -9.28892,-5.31326 -12.52148,0 -12.52148,21.84755 0,21.92187 12.44717,21.92187 z m -131.32331,6.05638 q -19.76683,0 -19.76683,-28.05256 0,-27.86678 19.84114,-27.86678 9.51187,0 14.56504,7.28252 5.09033,7.24536 5.09033,20.65857 0,13.41321 -5.12748,20.69573 -5.12749,7.28252 -14.6022,7.28252 z m 0,-6.05638 q 6.42794,0 9.4004,-5.38758 3.00961,-5.38757 3.00961,-16.53429 0,-11.25817 -3.04677,-16.53429 -3.00961,-5.31326 -9.28893,-5.31326 -12.52147,0 -12.52147,21.84755 0,21.92187 12.44716,21.92187 z M 231.26649,636.33417 h 7.39399 l -18.16914,54.32165 h -6.94812 l -18.09483,-54.32165 h 7.28252 l 10.96094,34.44334 q 1.52338,4.71878 3.2697,12.41001 1.15182,-5.38758 3.45548,-12.63294 z M 1521.3144,544.19155 v 22.44205 h -6.9482 v -54.32164 h 13.2646 q 19.321,0 19.321,15.41962 0,10.66368 -10.738,14.56503 l 14.7508,24.33699 h -8.1371 l -13.0045,-22.44205 z m 0,-5.8706 h 6.0935 q 6.3536,0 9.3632,-2.45227 3.0097,-2.45228 3.0097,-7.8027 0,-5.23896 -2.9725,-7.54261 -2.9725,-2.30366 -9.5862,-2.30366 h -5.9077 z m -105.8346,28.31265 h -31.2851 v -54.32164 h 31.2851 v 6.09353 h -24.3741 v 16.79438 h 22.925 v 6.01923 h -22.925 v 19.32096 h 24.3741 z m -133.6269,-54.32164 h 7.394 l -18.1691,54.32164 h -6.9482 l -18.0948,-54.32164 h 7.2825 l 10.961,34.44334 q 1.5234,4.71877 3.2697,12.41 1.1518,-5.38757 3.4555,-12.63294 z m -145.4796,55.06475 q -19.7668,0 -19.7668,-28.05255 0,-27.86678 19.8411,-27.86678 9.5119,0 14.565,7.28251 5.0904,7.24537 5.0904,20.65858 0,13.41321 -5.1275,20.69573 -5.1275,7.28251 -14.6022,7.28251 z m 0,-6.05638 q 6.4279,0 9.4004,-5.38757 3.0096,-5.38758 3.0096,-16.53429 0,-11.25818 -3.0468,-16.53429 -3.0096,-5.31327 -9.2889,-5.31327 -12.5215,0 -12.5215,21.84756 0,21.92186 12.4472,21.92186 z m -134.593,-32.13968 h 6.5765 l 5.3876,19.35812 q 2.2665,8.1371 2.6752,11.4068 0.074,-1.96925 2.4152,-22.99938 l 2.6009,-24.63423 h 6.3164 l -6.9481,54.32164 h -7.0596 l -6.2421,-21.55031 q -1.4863,-5.12749 -2.4523,-10.47791 -1.189,6.42794 -2.4151,10.55222 l -5.79632,21.476 h -7.05959 l -7.5426,-54.32164 h 6.31647 l 3.2697,24.63423 q 0.85458,6.53941 1.48623,14.04486 0.63164,7.50545 0.63164,8.95452 0.89174,-5.61051 2.6009,-11.59258 z M 864.28914,545.492 v 21.1416 h -6.91096 v -54.32164 h 15.0109 q 19.09803,0 19.09803,15.90264 0,8.1371 -5.16464,12.70725 -5.12749,4.57015 -14.93659,4.57015 z m 0,-5.8706 h 6.31647 q 7.35683,0 10.51506,-2.67521 3.19539,-2.67521 3.19539,-8.36003 0,-10.36645 -12.55863,-10.36645 h -7.46829 z m -139.53472,25.19157 v -6.61372 q 7.83986,3.1954 15.38246,3.1954 13.0045,0 13.0045,-8.91737 0,-3.8642 -2.63805,-5.94492 -2.6009,-2.08072 -10.58938,-4.94171 -7.72839,-2.71236 -11.10956,-6.46509 -3.34401,-3.78988 -3.34401,-9.80911 0,-6.46509 4.75593,-10.10635 4.79309,-3.67841 13.11597,-3.67841 8.50865,0 15.45677,2.89814 l -2.37797,6.09354 q -7.17105,-2.89815 -13.37605,-2.89815 -10.88662,0 -10.88662,7.76555 0,3.78988 2.41512,6.09353 2.45228,2.30366 10.0692,4.94171 9.1403,3.2697 12.18707,6.76234 3.08392,3.45548 3.08392,8.91737 0,7.13389 -5.16464,11.22102 -5.12749,4.04997 -14.6022,4.04997 -9.84626,0 -15.38246,-2.56374 z m -120.5853,1.82063 h -6.91096 v -54.32164 h 31.24795 v 6.09353 h -24.33699 v 19.17235 h 22.92507 v 6.09353 h -22.92507 z m -138.64298,0 v -54.32164 h 6.94812 v 48.15379 h 23.59387 v 6.16785 z m -102.67625,0 -5.35042,-16.83153 h -18.24346 l -5.42473,16.83153 h -7.05958 l 17.9462,-54.54458 h 7.24537 l 18.02051,54.54458 z m -7.31968,-22.96223 -4.94171,-15.75402 q -1.44907,-4.6073 -2.30365,-8.39719 -0.74311,3.67842 -1.70916,6.7995 l -5.35042,17.35171 z M 234.8706,566.6336 h -6.94812 v -25.34019 h -21.73609 v 25.34019 h -6.94811 v -54.32164 h 6.94811 v 22.88791 h 21.73609 v -22.88791 h 6.94812 z M 1533.7244,442.61138 h -6.9481 v -48.2281 h -15.5311 v -6.09354 h 37.9731 v 6.09354 h -15.4939 z M 1389.991,420.16934 v 22.44204 h -6.9481 v -54.32164 h 13.2646 q 19.3209,0 19.3209,15.41962 0,10.66369 -10.738,14.56504 l 14.7509,24.33698 h -8.1371 l -13.0045,-22.44204 z m 0,-5.8706 h 6.0935 q 6.3537,0 9.3633,-2.45228 3.0096,-2.45228 3.0096,-7.8027 0,-5.23895 -2.9725,-7.54261 -2.9724,-2.30365 -9.5861,-2.30365 h -5.9078 z m -107.878,28.31264 -5.3504,-16.83153 h -18.2435 l -5.4247,16.83153 h -7.0596 l 17.9462,-54.54457 h 7.2454 l 18.0205,54.54457 z m -7.3197,-22.96222 -4.9417,-15.75402 q -1.449,-4.60731 -2.3036,-8.39719 -0.7431,3.67841 -1.7092,6.79949 l -5.3504,17.35172 z m -141.6897,-14.49073 h 6.5766 l 5.3875,19.35812 q 2.2665,8.1371 2.6752,11.40681 0.074,-1.96926 2.4152,-22.99939 l 2.6009,-24.63423 h 6.3164 l -6.9481,54.32164 h -7.0596 l -6.2421,-21.55031 q -1.4863,-5.12748 -2.4523,-10.47791 -1.189,6.42794 -2.4151,10.55223 l -5.7963,21.47599 h -7.0596 l -7.5426,-54.32164 h 6.3165 l 3.2697,24.63423 q 0.8545,6.53941 1.4862,14.04486 0.6316,7.50545 0.6316,8.95453 0.8918,-5.61052 2.6009,-11.59258 z m -106.429,37.45295 h -7.8398 l -16.7201,-25.93468 -5.20181,4.23575 v 21.69893 h -6.91096 v -54.32164 h 6.91096 v 27.16082 l 4.49581,-6.24216 16.8316,-20.91866 h 7.7655 l -19.3581,23.66819 z m -136.48794,0 h -31.2851 v -54.32164 h 31.2851 v 6.09354 h -24.37414 v 16.79438 h 22.92507 v 6.01922 h -22.92507 v 19.32097 h 24.37414 z m -150.90436,0 -10.32928,-47.5593 h -0.29725 q 0.6688,9.88342 0.6688,15.08522 v 32.47408 h -5.61051 v -54.32164 h 9.17746 l 9.21462,44.2896 h 0.22293 l 9.28893,-44.2896 h 9.36324 v 54.32164 h -5.68483 v -32.95711 q 0,-3.78988 0.52018,-14.52788 h -0.29724 l -10.51507,47.48499 z M 602.05124,420.16934 v 22.44204 h -6.94811 v -54.32164 h 13.26458 q 19.32097,0 19.32097,15.41962 0,10.66369 -10.738,14.56504 l 14.75082,24.33698 h -8.1371 l -13.0045,-22.44204 z m 0,-5.8706 h 6.09354 q 6.35362,0 9.36324,-2.45228 3.00961,-2.45228 3.00961,-7.8027 0,-5.23895 -2.97246,-7.54261 -2.97245,-2.30365 -9.58617,-2.30365 h -5.90776 z m -105.83449,28.31264 h -31.2851 v -54.32164 h 31.2851 v 6.09354 h -24.37414 v 16.79438 h 22.92507 v 6.01922 h -22.92507 v 19.32097 h 24.37414 z M 362.5898,388.28974 h 7.39398 l -18.16914,54.32164 h -6.94811 L 326.7717,388.28974 h 7.28252 l 10.96093,34.44334 q 1.52338,4.71878 3.2697,12.41001 1.15183,-5.38758 3.45548,-12.63294 z M 217.11017,443.3545 q -19.76684,0 -19.76684,-28.05256 0,-27.86678 19.84115,-27.86678 9.51186,0 14.56504,7.28252 5.09033,7.24536 5.09033,20.65857 0,13.41321 -5.12749,20.69573 -5.12748,7.28252 -14.60219,7.28252 z m 0,-6.05638 q 6.42794,0 9.40039,-5.38758 3.00962,-5.38758 3.00962,-16.53429 0,-11.25818 -3.04677,-16.53429 -3.00961,-5.31326 -9.28893,-5.31326 -12.52147,0 -12.52147,21.84755 0,21.92187 12.44716,21.92187 z m 1304.20423,-141.151 v 22.44205 h -6.9482 v -54.32165 h 13.2646 q 19.321,0 19.321,15.41962 0,10.66369 -10.738,14.56504 l 14.7508,24.33699 h -8.1371 l -13.0045,-22.44205 z m 0,-5.8706 h 6.0935 q 6.3536,0 9.3632,-2.45228 3.0097,-2.45227 3.0097,-7.8027 0,-5.23895 -2.9725,-7.5426 -2.9725,-2.30366 -9.5862,-2.30366 h -5.9077 z m -122.2946,29.05576 q -19.7668,0 -19.7668,-28.05256 0,-27.86678 19.8411,-27.86678 9.5119,0 14.5651,7.28252 5.0903,7.24536 5.0903,20.65857 0,13.41321 -5.1275,20.69573 -5.1275,7.28252 -14.6022,7.28252 z m 0,-6.05638 q 6.428,0 9.4004,-5.38758 3.0096,-5.38757 3.0096,-16.53429 0,-11.25818 -3.0467,-16.53429 -3.0096,-5.31326 -9.289,-5.31326 -12.5214,0 -12.5214,21.84755 0,21.92187 12.4471,21.92187 z m -131.3232,6.05638 q -19.7668,0 -19.7668,-28.05256 0,-27.86678 19.8411,-27.86678 9.5119,0 14.565,7.28252 5.0904,7.24536 5.0904,20.65857 0,13.41321 -5.1275,20.69573 -5.1275,7.28252 -14.6022,7.28252 z m 0,-6.05638 q 6.4279,0 9.4004,-5.38758 3.0096,-5.38757 3.0096,-16.53429 0,-11.25818 -3.0468,-16.53429 -3.0096,-5.31326 -9.2889,-5.31326 -12.5215,0 -12.5215,21.84755 0,21.92187 12.4472,21.92187 z m -117.167,-49.00838 h 7.394 l -18.1691,54.32165 h -6.9482 l -18.0948,-54.32165 h 7.2825 l 10.961,34.44334 q 1.5234,4.71878 3.2697,12.41001 1.1518,-5.38758 3.4555,-12.63294 z m -126.6045,54.32165 h -37.97314 v -5.38758 l 29.46444,-42.76622 h -28.68417 v -6.16785 h 36.44977 v 5.38758 l -29.4645,42.76622 h 30.2076 z m -146.81724,0 h -6.94812 v -48.22811 h -15.53109 v -6.09354 h 37.97314 v 6.09354 H 877.10786 Z M 724.53149,264.26752 H 740.88 q 10.18066,0 14.75081,3.26971 4.60731,3.23254 4.60731,10.47791 0,4.75593 -2.9353,7.91416 -2.89814,3.15824 -7.87701,3.82704 v 0.37156 q 12.3357,2.0064 12.3357,12.70725 0,7.35683 -4.75593,11.55542 -4.71878,4.1986 -12.89303,4.1986 h -19.58106 z m 6.94812,23.03654 h 10.55222 q 5.79629,0 8.43434,-2.04356 2.67521,-2.04357 2.67521,-6.76234 0,-4.45869 -2.86099,-6.39078 -2.82383,-1.9321 -8.99168,-1.9321 h -9.8091 z m 0,5.79629 v 19.61822 h 11.4068 q 11.55542,0 11.55542,-10.18067 0,-9.43755 -12.03845,-9.43755 z M 628.7662,318.58917 h -7.98848 l -21.55031,-44.95841 h -0.29725 q 0.66881,10.29213 0.66881,15.49393 v 29.46448 h -6.39078 v -54.32165 h 7.91416 l 21.476,44.73547 h 0.22293 q -0.52018,-11.25817 -0.52018,-15.0109 v -29.72457 h 6.4651 z m -132.54945,0 h -31.2851 v -54.32165 h 31.2851 v 6.09354 h -24.37414 v 16.79438 h 22.92507 v 6.01922 h -22.92507 v 19.32097 h 24.37414 z m -133.47833,0 h -28.83283 v -4.57016 l 10.96094,-0.74311 v -43.69511 l -10.96094,-0.74311 v -4.57016 h 28.83283 v 4.57016 l -10.92378,0.74311 v 43.69511 l 10.92378,0.74311 z m -142.24708,0 h -6.94812 v -48.22811 h -15.53108 v -6.09354 h 37.97313 v 6.09354 H 220.49134 Z M 1523.4322,194.56695 h -6.911 v -54.32164 h 31.248 v 6.09353 h -24.337 v 19.17235 h 22.9251 v 6.09353 h -22.9251 z m -142.21,-1.44907 v -6.16785 q 6.0192,2.30365 11.4811,2.30365 5.9821,0 9.4376,-2.9353 3.4555,-2.97245 3.4555,-8.43434 v -37.63873 h 6.9109 v 37.56442 q 0,8.02563 -5.2389,12.78156 -5.2018,4.71877 -14.0077,4.71877 -8.0628,0 -12.0385,-2.19218 z m -99.2207,1.44907 h -28.8328 v -4.57015 l 10.9609,-0.74312 v -43.69511 l -10.9609,-0.74311 v -4.57015 h 28.8328 v 4.57015 l -10.9238,0.74311 v 43.69511 l 10.9238,0.74312 z m -131.4719,-54.32164 h 7.394 l -18.1692,54.32164 h -6.9481 l -18.0948,-54.32164 h 7.2825 l 10.9609,34.44334 q 1.5234,4.71877 3.2697,12.41 1.1519,-5.38757 3.4555,-12.63294 z m -131.0632,54.32164 -5.3505,-16.83154 h -18.2434 l -5.42474,16.83154 h -7.05958 l 17.94622,-54.54458 h 7.2453 l 18.0206,54.54458 z m -7.3197,-22.96223 -4.9417,-15.75402 q -1.4491,-4.6073 -2.3037,-8.39719 -0.7431,3.67842 -1.7091,6.7995 l -5.35045,17.35171 z m -156.06901,21.1416 v -6.61372 q 7.83986,3.1954 15.38246,3.1954 13.0045,0 13.0045,-8.91737 0,-3.8642 -2.63805,-5.94492 -2.6009,-2.08072 -10.58938,-4.94171 -7.72839,-2.71236 -11.10956,-6.46509 -3.34401,-3.78988 -3.34401,-9.80911 0,-6.46509 4.75593,-10.10635 4.79309,-3.67841 13.11596,-3.67841 8.50866,0 15.45678,2.89814 l -2.37797,6.09354 q -7.17105,-2.89815 -13.37605,-2.89815 -10.88662,0 -10.88662,7.76555 0,3.78988 2.41512,6.09353 2.45227,2.30366 10.06919,4.94171 9.14031,3.2697 12.18708,6.76234 3.08392,3.45548 3.08392,8.91737 0,7.13389 -5.16464,11.22102 -5.12749,4.04997 -14.6022,4.04997 -9.84626,0 -15.38246,-2.56374 z m -99.36939,1.82063 h -28.83283 v -4.57015 l 10.96093,-0.74312 v -43.69511 l -10.96093,-0.74311 v -4.57015 h 28.83283 v 4.57015 l -10.92378,0.74311 v 43.69511 l 10.92378,0.74312 z m -131.21184,0 -5.35042,-16.83154 h -18.24345 l -5.42474,16.83154 h -7.05958 l 17.9462,-54.54458 h 7.24537 l 18.02052,54.54458 z m -7.31967,-22.96223 -4.94171,-15.75402 q -1.44908,-4.6073 -2.30366,-8.39719 -0.74311,3.67842 -1.70916,6.7995 l -5.35042,17.35171 z m -135.03888,22.96223 h -6.94812 v -48.22811 h -15.53108 v -6.09353 h 37.97313 v 6.09353 h -15.49393 z m -118.24449,0 h -31.28511 v -54.32164 h 31.28511 v 6.09353 h -24.37415 v 16.79438 h 22.92507 v 6.01923 h -22.92507 v 19.32096 h 24.37415 z m -130.02286,0 h -6.94811 v -25.34019 h -21.73609 v 25.34019 h -6.94812 v -54.32164 h 6.94812 v 22.88791 h 21.73609 v -22.88791 h 6.94811 z" />
    </g>
    <rect
       id="rect66"
       width="450"
       height="450"
       x="-1.7763568e-015"
       y="-153"
       style="fill:none;stroke-width:0.26458332" />
  </g>
</svg>
